<svg xmlns="http://www.w3.org/2000/svg" viewBox="0 0 266.05144 234.935"><defs><style>.cls-1{fill:#bf5af2;}.cls-2{fill:#30d158;}.cls-10,.cls-11,.cls-12,.cls-13,.cls-14,.cls-15,.cls-16,.cls-17,.cls-18,.cls-19,.cls-20,.cls-21,.cls-22,.cls-23,.cls-24,.cls-25,.cls-26,.cls-27,.cls-28,.cls-29,.cls-3,.cls-30,.cls-31,.cls-32,.cls-33,.cls-34,.cls-35,.cls-36,.cls-37,.cls-38,.cls-39,.cls-4,.cls-40,.cls-41,.cls-42,.cls-43,.cls-44,.cls-45,.cls-46,.cls-47,.cls-48,.cls-49,.cls-5,.cls-50,.cls-51,.cls-52,.cls-53,.cls-54,.cls-55,.cls-56,.cls-57,.cls-58,.cls-59,.cls-6,.cls-60,.cls-61,.cls-62,.cls-63,.cls-64,.cls-65,.cls-66,.cls-67,.cls-68,.cls-69,.cls-7,.cls-70,.cls-71,.cls-72,.cls-73,.cls-74,.cls-75,.cls-76,.cls-77,.cls-78,.cls-79,.cls-8,.cls-80,.cls-81,.cls-82,.cls-83,.cls-84,.cls-85,.cls-86,.cls-9{fill:none;}.cls-3{stroke:#30d158;}.cls-10,.cls-11,.cls-12,.cls-13,.cls-14,.cls-15,.cls-16,.cls-17,.cls-18,.cls-19,.cls-20,.cls-21,.cls-22,.cls-23,.cls-24,.cls-25,.cls-26,.cls-27,.cls-28,.cls-29,.cls-3,.cls-30,.cls-31,.cls-32,.cls-33,.cls-34,.cls-35,.cls-36,.cls-37,.cls-38,.cls-39,.cls-4,.cls-40,.cls-41,.cls-42,.cls-43,.cls-44,.cls-45,.cls-46,.cls-47,.cls-48,.cls-49,.cls-5,.cls-50,.cls-51,.cls-52,.cls-53,.cls-54,.cls-55,.cls-56,.cls-57,.cls-58,.cls-59,.cls-6,.cls-60,.cls-61,.cls-62,.cls-63,.cls-64,.cls-65,.cls-66,.cls-67,.cls-68,.cls-69,.cls-7,.cls-70,.cls-71,.cls-72,.cls-73,.cls-74,.cls-75,.cls-76,.cls-77,.cls-78,.cls-79,.cls-8,.cls-80,.cls-81,.cls-82,.cls-83,.cls-84,.cls-85,.cls-86,.cls-88,.cls-9{stroke-miterlimit:10;}.cls-3,.cls-45{opacity:0;}.cls-4{stroke:#2fce57;}.cls-4,.cls-46{opacity:0.02439;}.cls-5{stroke:#2fcc57;}.cls-47,.cls-5{opacity:0.04878;}.cls-6{stroke:#2ec956;}.cls-48,.cls-6{opacity:0.07317;}.cls-7{stroke:#2ec655;}.cls-49,.cls-7{opacity:0.09756;}.cls-8{stroke:#2dc354;}.cls-50,.cls-8{opacity:0.12195;}.cls-9{stroke:#2dc154;}.cls-51,.cls-9{opacity:0.14634;}.cls-10{stroke:#2cbe53;}.cls-10,.cls-52{opacity:0.17073;}.cls-11{stroke:#2cbb52;}.cls-11,.cls-53{opacity:0.19512;}.cls-12{stroke:#2bb852;}.cls-12,.cls-54{opacity:0.21951;}.cls-13{stroke:#2bb651;}.cls-13,.cls-55{opacity:0.2439;}.cls-14{stroke:#2ab350;}.cls-14,.cls-56{opacity:0.26829;}.cls-15{stroke:#2ab050;}.cls-15,.cls-57{opacity:0.29268;}.cls-16{stroke:#29ad4f;}.cls-16,.cls-58{opacity:0.31707;}.cls-17{stroke:#28ab4e;}.cls-17,.cls-59{opacity:0.34146;}.cls-18{stroke:#28a84d;}.cls-18,.cls-60{opacity:0.36585;}.cls-19{stroke:#27a54d;}.cls-19,.cls-61{opacity:0.39024;}.cls-20{stroke:#27a34c;}.cls-20,.cls-62{opacity:0.41463;}.cls-21{stroke:#26a04b;}.cls-21,.cls-63{opacity:0.43902;}.cls-22{stroke:#269d4b;}.cls-22,.cls-64{opacity:0.46341;}.cls-23{stroke:#259a4a;}.cls-23,.cls-65{opacity:0.4878;}.cls-24{stroke:#259849;}.cls-24,.cls-66{opacity:0.5122;}.cls-25{stroke:#249548;}.cls-25,.cls-67{opacity:0.53659;}.cls-26{stroke:#249248;}.cls-26,.cls-68{opacity:0.56098;}.cls-27{stroke:#238f47;}.cls-27,.cls-69{opacity:0.58537;}.cls-28{stroke:#238d46;}.cls-28,.cls-70{opacity:0.60976;}.cls-29{stroke:#228a46;}.cls-29,.cls-71{opacity:0.63415;}.cls-30{stroke:#228745;}.cls-30,.cls-72{opacity:0.65854;}.cls-31{stroke:#218544;}.cls-31,.cls-73{opacity:0.68293;}.cls-32{stroke:#208243;}.cls-32,.cls-74{opacity:0.70732;}.cls-33{stroke:#207f43;}.cls-33,.cls-75{opacity:0.73171;}.cls-34{stroke:#1f7c42;}.cls-34,.cls-76{opacity:0.7561;}.cls-35{stroke:#1f7a41;}.cls-35,.cls-77{opacity:0.78049;}.cls-36{stroke:#1e7741;}.cls-36,.cls-78{opacity:0.80488;}.cls-37{stroke:#1e7440;}.cls-37,.cls-79{opacity:0.82927;}.cls-38{stroke:#1d713f;}.cls-38,.cls-80{opacity:0.85366;}.cls-39{stroke:#1d6f3f;}.cls-39,.cls-81{opacity:0.87805;}.cls-40{stroke:#1c6c3e;}.cls-40,.cls-82{opacity:0.90244;}.cls-41{stroke:#1c693d;}.cls-41,.cls-83{opacity:0.92683;}.cls-42{stroke:#1b663c;}.cls-42,.cls-84{opacity:0.95122;}.cls-43{stroke:#1b643c;}.cls-43,.cls-85{opacity:0.97561;}.cls-44{stroke:#1a613b;}.cls-45{stroke:#bf5af2;}.cls-46{stroke:#be5aef;stroke-width:0.98171px;}.cls-47{stroke:#bd59ed;stroke-width:0.96341px;}.cls-48{stroke:#bb59ea;stroke-width:0.94512px;}.cls-49{stroke:#ba59e8;stroke-width:0.92683px;}.cls-50{stroke:#b958e5;stroke-width:0.90854px;}.cls-51{stroke:#b858e3;stroke-width:0.89024px;}.cls-52{stroke:#b658e0;stroke-width:0.87195px;}.cls-53{stroke:#b557de;stroke-width:0.85366px;}.cls-54{stroke:#b457db;stroke-width:0.83537px;}.cls-55{stroke:#b357d8;stroke-width:0.81707px;}.cls-56{stroke:#b156d6;stroke-width:0.79878px;}.cls-57{stroke:#b056d3;stroke-width:0.78049px;}.cls-58{stroke:#af56d1;stroke-width:0.7622px;}.cls-59{stroke:#ae55ce;stroke-width:0.7439px;}.cls-60{stroke:#ac55cc;stroke-width:0.72561px;}.cls-61{stroke:#ab55c9;stroke-width:0.70732px;}.cls-62{stroke:#aa54c6;stroke-width:0.68902px;}.cls-63{stroke:#a954c4;stroke-width:0.67073px;}.cls-64{stroke:#a754c1;stroke-width:0.65244px;}.cls-65{stroke:#a653bf;stroke-width:0.63415px;}.cls-66{stroke:#a553bc;stroke-width:0.61585px;}.cls-67{stroke:#a452ba;stroke-width:0.59756px;}.cls-68{stroke:#a252b7;stroke-width:0.57927px;}.cls-69{stroke:#a152b5;stroke-width:0.56098px;}.cls-70{stroke:#a051b2;stroke-width:0.54268px;}.cls-71{stroke:#9f51af;stroke-width:0.52439px;}.cls-72{stroke:#9d51ad;stroke-width:0.5061px;}.cls-73{stroke:#9c50aa;stroke-width:0.4878px;}.cls-74{stroke:#9b50a8;stroke-width:0.46951px;}.cls-75{stroke:#9a50a5;stroke-width:0.45122px;}.cls-76{stroke:#984fa3;stroke-width:0.43293px;}.cls-77{stroke:#974fa0;stroke-width:0.41463px;}.cls-78{stroke:#964f9d;stroke-width:0.39634px;}.cls-79{stroke:#954e9b;stroke-width:0.37805px;}.cls-80{stroke:#934e98;stroke-width:0.35976px;}.cls-81{stroke:#924e96;stroke-width:0.34146px;}.cls-82{stroke:#914d93;stroke-width:0.32317px;}.cls-83{stroke:#904d91;stroke-width:0.30488px;}.cls-84{stroke:#8e4d8e;stroke-width:0.28659px;}.cls-85{stroke:#8d4c8c;stroke-width:0.26829px;}.cls-86{stroke:#8c4c89;stroke-width:0.25px;}.cls-87{fill:#4e342e;}.cls-88,.cls-89{fill:#f37021;}.cls-88{stroke:#a7a9ac;}</style></defs><g id="card"><path id="card1-final" class="cls-1" d="M36.03038,28.82092h188a12,12,0,0,1,12,12v104.821a12,12,0,0,1-12,12h-188a0,0,0,0,1,0,0V28.82092A0,0,0,0,1,36.03038,28.82092Z" transform="translate(-23.68339 50.26705) rotate(-20)"/><path id="card2-final" class="cls-2" d="M17.58746,48.04288h218a12,12,0,0,1,12,12V164.86432a12,12,0,0,1-12,12h-218a0,0,0,0,1,0,0V48.04288A0,0,0,0,1,17.58746,48.04288Z" transform="matrix(0.98489, -0.1732, 0.1732, 0.98489, -17.47292, 22.78271)"/></g><g id="shadow"><g id="First"><line class="cls-3" x1="39.64759" y1="62.05965" x2="240.64759" y2="62.05965"/><line class="cls-4" x1="39.17834" y1="62.14137" x2="240.66467" y2="62.14137"/><line class="cls-5" x1="38.70909" y1="62.2231" x2="240.68174" y2="62.2231"/><line class="cls-6" x1="38.23984" y1="62.30482" x2="240.69881" y2="62.30482"/><line class="cls-7" x1="37.77059" y1="62.38655" x2="240.71589" y2="62.38655"/><line class="cls-8" x1="37.30133" y1="62.46827" x2="240.73296" y2="62.46827"/><line class="cls-9" x1="36.83208" y1="62.55" x2="240.75003" y2="62.55"/><line class="cls-10" x1="36.36283" y1="62.63172" x2="240.7671" y2="62.63172"/><line class="cls-11" x1="35.89358" y1="62.71345" x2="240.78418" y2="62.71345"/><line class="cls-12" x1="35.42433" y1="62.79517" x2="240.80125" y2="62.79517"/><line class="cls-13" x1="34.95508" y1="62.8769" x2="240.81832" y2="62.8769"/><line class="cls-14" x1="34.48583" y1="62.95862" x2="240.8354" y2="62.95862"/><line class="cls-15" x1="34.01657" y1="63.04034" x2="240.85247" y2="63.04034"/><line class="cls-16" x1="33.54732" y1="63.12207" x2="240.86954" y2="63.12207"/><line class="cls-17" x1="33.07807" y1="63.20379" x2="240.88662" y2="63.20379"/><line class="cls-18" x1="32.60882" y1="63.28552" x2="240.90369" y2="63.28552"/><line class="cls-19" x1="32.13957" y1="63.36724" x2="240.92076" y2="63.36724"/><line class="cls-20" x1="31.67032" y1="63.44897" x2="240.93784" y2="63.44897"/><line class="cls-21" x1="31.20106" y1="63.53069" x2="240.95491" y2="63.53069"/><line class="cls-22" x1="30.73181" y1="63.61242" x2="240.97198" y2="63.61242"/><line class="cls-23" x1="30.26256" y1="63.69414" x2="240.98906" y2="63.69414"/><line class="cls-24" x1="29.79331" y1="63.77587" x2="241.00613" y2="63.77587"/><line class="cls-25" x1="29.32406" y1="63.85759" x2="241.0232" y2="63.85759"/><line class="cls-26" x1="28.85481" y1="63.93932" x2="241.04028" y2="63.93932"/><line class="cls-27" x1="28.38555" y1="64.02104" x2="241.05735" y2="64.02104"/><line class="cls-28" x1="27.9163" y1="64.10277" x2="241.07442" y2="64.10277"/><line class="cls-29" x1="27.44705" y1="64.18449" x2="241.09149" y2="64.18449"/><line class="cls-30" x1="26.9778" y1="64.26621" x2="241.10857" y2="64.26621"/><line class="cls-31" x1="26.50855" y1="64.34794" x2="241.12564" y2="64.34794"/><line class="cls-32" x1="26.0393" y1="64.42966" x2="241.14271" y2="64.42966"/><line class="cls-33" x1="25.57004" y1="64.51139" x2="241.15979" y2="64.51139"/><line class="cls-34" x1="25.10079" y1="64.59311" x2="241.17686" y2="64.59311"/><line class="cls-35" x1="24.63154" y1="64.67484" x2="241.19393" y2="64.67484"/><line class="cls-36" x1="24.16229" y1="64.75656" x2="241.21101" y2="64.75656"/><line class="cls-37" x1="23.69304" y1="64.83829" x2="241.22808" y2="64.83829"/><line class="cls-38" x1="23.22379" y1="64.92001" x2="241.24515" y2="64.92001"/><line class="cls-39" x1="22.75454" y1="65.00174" x2="241.26223" y2="65.00174"/><line class="cls-40" x1="22.28528" y1="65.08346" x2="241.2793" y2="65.08346"/><line class="cls-41" x1="21.81603" y1="65.16519" x2="241.29637" y2="65.16519"/><line class="cls-42" x1="21.34678" y1="65.24691" x2="241.31345" y2="65.24691"/><line class="cls-43" x1="20.87753" y1="65.32864" x2="241.33052" y2="65.32864"/><line class="cls-44" x1="20.40828" y1="65.41036" x2="241.34759" y2="65.41036"/></g><g id="Second"><line class="cls-45" x1="41.54492" y1="57.78272" x2="218.81032" y2="26.52605"/><line class="cls-46" x1="41.03089" y1="57.95764" x2="218.83913" y2="26.60525"/><line class="cls-47" x1="40.51686" y1="58.13256" x2="218.86795" y2="26.68445"/><line class="cls-48" x1="40.00283" y1="58.30748" x2="218.89676" y2="26.76366"/><line class="cls-49" x1="39.4888" y1="58.4824" x2="218.92557" y2="26.84286"/><line class="cls-50" x1="38.97476" y1="58.65732" x2="218.95438" y2="26.92206"/><line class="cls-51" x1="38.46073" y1="58.83224" x2="218.9832" y2="27.00126"/><line class="cls-52" x1="37.9467" y1="59.00716" x2="219.01201" y2="27.08046"/><line class="cls-53" x1="37.43267" y1="59.18208" x2="219.04082" y2="27.15966"/><line class="cls-54" x1="36.91863" y1="59.357" x2="219.06964" y2="27.23886"/><line class="cls-55" x1="36.4046" y1="59.53192" x2="219.09845" y2="27.31806"/><line class="cls-56" x1="35.89057" y1="59.70684" x2="219.12726" y2="27.39726"/><line class="cls-57" x1="35.37654" y1="59.88176" x2="219.15608" y2="27.47647"/><line class="cls-58" x1="34.86251" y1="60.05668" x2="219.18489" y2="27.55567"/><line class="cls-59" x1="34.34847" y1="60.23159" x2="219.2137" y2="27.63487"/><line class="cls-60" x1="33.83444" y1="60.40651" x2="219.24252" y2="27.71407"/><line class="cls-61" x1="33.32041" y1="60.58143" x2="219.27133" y2="27.79327"/><line class="cls-62" x1="32.80638" y1="60.75635" x2="219.30014" y2="27.87247"/><line class="cls-63" x1="32.29235" y1="60.93127" x2="219.32896" y2="27.95167"/><line class="cls-64" x1="31.77831" y1="61.10619" x2="219.35777" y2="28.03087"/><line class="cls-65" x1="31.26428" y1="61.28111" x2="219.38658" y2="28.11007"/><line class="cls-66" x1="30.75025" y1="61.45603" x2="219.4154" y2="28.18927"/><line class="cls-67" x1="30.23622" y1="61.63095" x2="219.44421" y2="28.26848"/><line class="cls-68" x1="29.72219" y1="61.80587" x2="219.47302" y2="28.34768"/><line class="cls-69" x1="29.20815" y1="61.98079" x2="219.50184" y2="28.42688"/><line class="cls-70" x1="28.69412" y1="62.15571" x2="219.53065" y2="28.50608"/><line class="cls-71" x1="28.18009" y1="62.33063" x2="219.55946" y2="28.58528"/><line class="cls-72" x1="27.66606" y1="62.50555" x2="219.58828" y2="28.66448"/><line class="cls-73" x1="27.15203" y1="62.68046" x2="219.61709" y2="28.74368"/><line class="cls-74" x1="26.63799" y1="62.85538" x2="219.6459" y2="28.82288"/><line class="cls-75" x1="26.12396" y1="63.0303" x2="219.67472" y2="28.90208"/><line class="cls-76" x1="25.60993" y1="63.20522" x2="219.70353" y2="28.98128"/><line class="cls-77" x1="25.0959" y1="63.38014" x2="219.73234" y2="29.06049"/><line class="cls-78" x1="24.58187" y1="63.55506" x2="219.76116" y2="29.13969"/><line class="cls-79" x1="24.06783" y1="63.72998" x2="219.78997" y2="29.21889"/><line class="cls-80" x1="23.5538" y1="63.9049" x2="219.81878" y2="29.29809"/><line class="cls-81" x1="23.03977" y1="64.07982" x2="219.84759" y2="29.37729"/><line class="cls-82" x1="22.52574" y1="64.25474" x2="219.87641" y2="29.45649"/><line class="cls-83" x1="22.01171" y1="64.42966" x2="219.90522" y2="29.53569"/><line class="cls-84" x1="21.49767" y1="64.60458" x2="219.93403" y2="29.61489"/><line class="cls-85" x1="20.98364" y1="64.7795" x2="219.96285" y2="29.69409"/><line class="cls-86" x1="20.46961" y1="64.95442" x2="219.99166" y2="29.77329"/></g></g><g id="wallet"><rect id="wallet-2" data-name="wallet" class="cls-87" y="64.935" width="261.36364" height="170" rx="16"/></g><g id="blockchain"><polygon id="rhombus-top" class="cls-88" points="81.567 115.16 130.682 143.516 179.797 115.16 130.682 86.803 81.567 115.16"/><polygon id="rhombus-left" class="cls-88" points="124.597 210.759 124.597 154.045 75.482 125.689 75.482 182.402 124.597 210.759"/><polygon id="rhombus-right" class="cls-88" points="185.857 125.689 136.742 154.045 136.742 210.759 185.857 182.402 185.857 125.689"/></g><g id="cover"><path class="cls-89" d="M228.05144,140.31407h35.57128a2.42872,2.42872,0,0,1,2.42872,2.42872v17.14256a2.42872,2.42872,0,0,1-2.42872,2.42872H228.05144a0,0,0,0,1,0,0v-22A0,0,0,0,1,228.05144,140.31407Z"/><circle class="cls-89" cx="228.05144" cy="151.31407" r="11"/></g></svg>